# xmcd
#
# Track frame offsets:
#	150
#	19267
#	37301
#	56251
#	66635
#	80628
#	93588
#	104563
#	113517
#	131252
#	142396
#	158212
#	173924
#	186895
#	194639
#	208490
#	219336
#	231718
#	244269
#	261903
#
# Disc length: 3624 seconds
#
# Revision: 1
# Processed by: cddbd v1.5.2PL0 Copyright (c) Steve Scherf et al.
# Submitted via: audiograbber 1.83.01
#
DISCID=440e2614
DTITLE=ruzni - 100 Nej Country 2
DYEAR=2004
DGENRE=Country
TTITLE0=Uz z hor zni zvon
TTITLE1=Divka s vlasem medovym
TTITLE2=Zbejva jen louceni
TTITLE3=Odjizdim v dal
TTITLE4=Dalnice cislo 5
TTITLE5=Rosa na kolejich
TTITLE6=Folson prison blues
TTITLE7=Paklicek karticek
TTITLE8=Zase praska v krbu drivi
TTITLE9=Cesty toulavy
TTITLE10=Laredo
TTITLE11=Blizzard
TTITLE12=Slamu v botach nosim
TTITLE13=Cripple Creak
TTITLE14=Ved mne dal cesto ma
TTITLE15=Z dyzlu kour
TTITLE16=Konicku muj
TTITLE17=Pukla vaza
TTITLE18=Kamaradi 2
TTITLE19=To se budem prima mit
EXTD=
EXTT0=
EXTT1=
EXTT2=
EXTT3=
EXTT4=
EXTT5=
EXTT6=
EXTT7=
EXTT8=
EXTT9=
EXTT10=
EXTT11=
EXTT12=
EXTT13=
EXTT14=
EXTT15=
EXTT16=
EXTT17=
EXTT18=
EXTT19=
PLAYORDER=
